<?xml version="1.0" encoding="UTF-8" standalone="no" ?>
<!DOCTYPE svg PUBLIC "-//W3C//DTD SVG 1.1//EN" "http://www.w3.org/Graphics/SVG/1.1/DTD/svg11.dtd">
<svg xmlns="http://www.w3.org/2000/svg" xmlns:xlink="http://www.w3.org/1999/xlink" version="1.1" width="300" height="300" viewBox="0 0 300 300" xml:space="preserve">
<desc>Created with Fabric.js 5.2.4</desc>
<defs>
</defs>
<g transform="matrix(1 0 0 1 150 150)" id="7eef5379-08cb-43eb-948d-dcc86a403d6b"  >
<rect style="stroke: none; stroke-width: 1; stroke-dasharray: none; stroke-linecap: butt; stroke-dashoffset: 0; stroke-linejoin: miter; stroke-miterlimit: 4; fill: rgb(255,255,255); fill-rule: nonzero; opacity: 1; visibility: hidden;" vector-effect="non-scaling-stroke"  x="-150" y="-150" rx="0" ry="0" width="300" height="300" />
</g>
<g transform="matrix(Infinity NaN NaN Infinity 0 0)" id="7139e607-bd4a-484b-a162-e6a266da0f81"  >
</g>
<g transform="matrix(0.5 0 0 0.5 150 150)"  >
<g style="" vector-effect="non-scaling-stroke"   >
		<g transform="matrix(0.13 0 0 -0.13 0.62 -98.62)"  >
<path style="stroke: none; stroke-width: 1; stroke-dasharray: none; stroke-linecap: butt; stroke-dashoffset: 0; stroke-linejoin: miter; stroke-miterlimit: 4; fill: rgb(0,0,0); fill-rule: nonzero; opacity: 1;" vector-effect="non-scaling-stroke"  transform=" translate(-2894.63, -2979.15)" d="M 1752 3888 C 1735 3871 1735 2089 1752 2072 C 1769 2055 4021 2055 4038 2072 C 4047 2081 4050 2237 4050 2711 C 4050 3268 4048 3340 4034 3354 C 4022 3367 3994 3370 3897 3370 L 3775 3370 L 3778 3419 C 3786 3524 3726 3640 3627 3713 C 3566 3758 3540 3759 3465 3720 C 3434 3704 3403 3690 3396 3690 C 3390 3690 3358 3704 3326 3720 C 3252 3758 3224 3758 3171 3720 C 3067 3644 3015 3553 3015 3443 L 3015 3370 L 2983 3370 C 2957 3370 2946 3378 2919 3415 C 2857 3502 2824 3511 2707 3473 L 2660 3458 L 2612 3500 C 2554 3552 2527 3563 2478 3555 C 2445 3549 2426 3556 2313 3616 C 2168 3692 1931 3822 1852 3869 C 1795 3902 1771 3907 1752 3888 z M 1984 3706 C 2067 3660 2186 3596 2247 3564 C 2309 3531 2360 3501 2359 3495 C 2359 3490 2347 3476 2333 3465 L 2306 3446 L 2063 3570 L 1820 3693 L 1820 3742 C 1820 3768 1823 3790 1826 3790 C 1830 3790 1901 3752 1984 3706 z M 3321 3635 C 3354 3616 3388 3600 3397 3600 C 3405 3600 3439 3616 3472 3636 C 3542 3679 3559 3677 3619 3618 C 3707 3531 3719 3449 3670 3260 C 3646 3170 3638 3108 3630 2975 C 3619 2788 3600 2682 3570 2632 C 3529 2565 3520 2591 3511 2795 C 3502 2971 3490 3014 3440 3044 C 3388 3074 3339 3056 3308 2996 C 3290 2962 3286 2928 3279 2795 C 3270 2590 3261 2565 3220 2632 C 3190 2682 3171 2788 3160 2975 C 3152 3108 3144 3170 3120 3260 C 3086 3394 3082 3470 3109 3532 C 3131 3583 3215 3670 3242 3670 C 3253 3670 3289 3654 3321 3635 z M 2258 3385 C 2260 3383 2254 3358 2246 3329 C 2234 3289 2230 3230 2230 3087 C 2230 2940 2225 2871 2209 2777 C 2166 2527 2202 2350 2295 2350 C 2332 2350 2374 2379 2394 2418 C 2402 2433 2422 2503 2440 2575 C 2474 2716 2495 2770 2515 2770 C 2546 2770 2547 2712 2520 2572 C 2488 2409 2497 2328 2549 2300 C 2642 2251 2746 2393 2810 2655 C 2846 2803 2871 2872 2927 2985 C 2949 3029 2973 3082 2979 3103 C 2991 3137 2994 3140 3030 3140 C 3078 3140 3078 3139 3090 2922 C 3102 2700 3132 2591 3196 2541 C 3240 2507 3293 2519 3324 2570 C 3344 2605 3359 2715 3360 2831 C 3360 2923 3374 2980 3395 2980 C 3417 2980 3428 2923 3434 2780 C 3441 2624 3451 2577 3487 2544 C 3536 2499 3601 2523 3640 2601 C 3675 2670 3691 2752 3700 2920 C 3705 3011 3712 3097 3715 3111 L 3721 3138 L 3846 3139 L 3970 3141 L 3970 2634 C 3970 2177 3968 2128 3954 2134 C 3945 2137 3462 2140 2879 2140 L 1820 2140 L 1820 2873 L 1820 3607 L 2038 3497 C 2157 3437 2256 3386 2258 3385 z M 2557 3448 C 2578 3430 2604 3407 2614 3398 C 2639 3375 2645 3375 2735 3402 L 2810 3424 L 2835 3400 C 2881 3357 2914 3273 2914 3200 C 2914 3142 2907 3121 2853 3005 C 2785 2859 2773 2824 2731 2657 C 2715 2593 2689 2514 2675 2482 C 2650 2428 2605 2370 2588 2370 C 2573 2370 2579 2473 2601 2588 C 2626 2723 2622 2775 2580 2820 C 2507 2898 2411 2820 2380 2655 C 2374 2622 2359 2564 2348 2525 C 2318 2422 2300 2405 2280 2465 C 2262 2520 2266 2663 2290 2800 C 2309 2905 2312 2949 2307 3070 C 2301 3245 2310 3311 2348 3365 C 2379 3409 2473 3480 2501 3480 C 2511 3480 2536 3465 2557 3448 z M 3033 3283 C 3036 3278 3041 3260 3045 3243 C 3051 3213 3050 3210 3027 3210 C 3001 3210 2990 3226 2990 3266 C 2990 3283 2996 3290 3009 3290 C 3020 3290 3031 3287 3033 3283 z M 3970 3250 L 3970 3210 L 3854 3210 L 3738 3210 L 3745 3243 C 3749 3260 3754 3278 3757 3283 C 3759 3287 3808 3290 3866 3290 L 3970 3290 L 3970 3250 z" stroke-linecap="round" />
</g>
		<g transform="matrix(0.13 0 0 -0.13 -35.4 120.48)"  >
<path style="stroke: none; stroke-width: 1; stroke-dasharray: none; stroke-linecap: butt; stroke-dashoffset: 0; stroke-linejoin: miter; stroke-miterlimit: 4; fill: rgb(0,0,0); fill-rule: nonzero; opacity: 1;" vector-effect="non-scaling-stroke"  transform=" translate(-2624.5, -1335.89)" d="M 2610 1345 C 2610 1227 2610 1127 2609 1123 C 2609 1118 2616 1114 2624 1112 C 2638 1109 2640 1135 2640 1334 C 2640 1528 2638 1560 2625 1560 C 2612 1560 2610 1529 2610 1345 z" stroke-linecap="round" />
</g>
		<g transform="matrix(0.13 0 0 -0.13 173.74 94.53)"  >
<path style="stroke: none; stroke-width: 1; stroke-dasharray: none; stroke-linecap: butt; stroke-dashoffset: 0; stroke-linejoin: miter; stroke-miterlimit: 4; fill: rgb(0,0,0); fill-rule: nonzero; opacity: 1;" vector-effect="non-scaling-stroke"  transform=" translate(-4193.04, -1530.57)" d="M 4174 1546 C 4165 1522 4178 1498 4197 1502 C 4209 1504 4215 1514 4215 1530 C 4215 1559 4183 1571 4174 1546 z" stroke-linecap="round" />
</g>
		<g transform="matrix(0.13 0 0 -0.13 -263.38 121.14)"  >
<path style="stroke: none; stroke-width: 1; stroke-dasharray: none; stroke-linecap: butt; stroke-dashoffset: 0; stroke-linejoin: miter; stroke-miterlimit: 4; fill: rgb(0,0,0); fill-rule: nonzero; opacity: 1;" vector-effect="non-scaling-stroke"  transform=" translate(-914.62, -1331)" d="M 800 1331 L 800 1110 L 858 1111 C 937 1111 980 1128 1008 1170 C 1030 1203 1031 1212 1028 1342 L 1025 1480 L 992 1512 C 962 1543 955 1545 880 1548 L 800 1552 L 800 1331 z M 966 1485 C 991 1460 991 1457 988 1325 C 984 1167 980 1159 896 1152 L 840 1148 L 840 1329 L 840 1510 L 890 1510 C 931 1510 946 1505 966 1485 z" stroke-linecap="round" />
</g>
		<g transform="matrix(0.13 0 0 -0.13 38.02 120.99)"  >
<path style="stroke: none; stroke-width: 1; stroke-dasharray: none; stroke-linecap: butt; stroke-dashoffset: 0; stroke-linejoin: miter; stroke-miterlimit: 4; fill: rgb(0,0,0); fill-rule: nonzero; opacity: 1;" vector-effect="non-scaling-stroke"  transform=" translate(-3175.16, -1332.13)" d="M 3065 1538 C 3062 1531 3061 1432 3062 1320 L 3065 1115 L 3137 1115 C 3194 1115 3214 1119 3237 1136 C 3286 1172 3291 1193 3288 1342 L 3285 1480 L 3253 1512 C 3223 1542 3214 1545 3145 1548 C 3088 1551 3069 1549 3065 1538 z M 3225 1485 C 3249 1462 3250 1456 3250 1330 C 3250 1204 3249 1198 3225 1175 C 3206 1155 3191 1150 3150 1150 L 3100 1150 L 3100 1330 L 3100 1510 L 3150 1510 C 3191 1510 3206 1505 3225 1485 z" stroke-linecap="round" />
</g>
		<g transform="matrix(0.13 0 0 -0.13 -118.62 123.94)"  >
<path style="stroke: none; stroke-width: 1; stroke-dasharray: none; stroke-linecap: butt; stroke-dashoffset: 0; stroke-linejoin: miter; stroke-miterlimit: 4; fill: rgb(0,0,0); fill-rule: nonzero; opacity: 1;" vector-effect="non-scaling-stroke"  transform=" translate(-2000.32, -1310)" d="M 1970 1475 C 1970 1444 1967 1440 1945 1440 C 1929 1440 1920 1434 1920 1425 C 1920 1416 1929 1410 1945 1410 L 1970 1410 L 1970 1305 C 1970 1161 1994 1110 2059 1110 C 2089 1110 2087 1145 2058 1147 C 2017 1150 2009 1176 2012 1295 C 2015 1397 2016 1405 2035 1406 C 2046 1407 2061 1408 2068 1409 C 2074 1410 2080 1417 2080 1425 C 2080 1435 2069 1440 2045 1440 C 2012 1440 2010 1442 2010 1475 C 2010 1503 2006 1510 1990 1510 C 1974 1510 1970 1503 1970 1475 z" stroke-linecap="round" />
</g>
		<g transform="matrix(0.13 0 0 -0.13 -212 128.19)"  >
<path style="stroke: none; stroke-width: 1; stroke-dasharray: none; stroke-linecap: butt; stroke-dashoffset: 0; stroke-linejoin: miter; stroke-miterlimit: 4; fill: rgb(0,0,0); fill-rule: nonzero; opacity: 1;" vector-effect="non-scaling-stroke"  transform=" translate(-1300, -1278.11)" d="M 1244 1431 C 1204 1406 1190 1365 1190 1273 C 1190 1155 1218 1110 1294 1110 C 1356 1110 1384 1131 1404 1193 C 1408 1205 1404 1210 1390 1210 C 1379 1210 1370 1205 1370 1200 C 1370 1180 1321 1140 1297 1140 C 1259 1140 1230 1175 1230 1220 L 1230 1260 L 1320 1260 L 1410 1260 L 1410 1298 C 1410 1355 1391 1409 1366 1426 C 1327 1451 1279 1453 1244 1431 z M 1344 1397 C 1355 1389 1364 1366 1367 1337 L 1373 1290 L 1301 1290 L 1230 1290 L 1230 1330 C 1230 1397 1293 1434 1344 1397 z" stroke-linecap="round" />
</g>
		<g transform="matrix(0.13 0 0 -0.13 -161.91 127.88)"  >
<path style="stroke: none; stroke-width: 1; stroke-dasharray: none; stroke-linecap: butt; stroke-dashoffset: 0; stroke-linejoin: miter; stroke-miterlimit: 4; fill: rgb(0,0,0); fill-rule: nonzero; opacity: 1;" vector-effect="non-scaling-stroke"  transform=" translate(-1675.66, -1280.39)" d="M 1642 1430 C 1614 1413 1609 1412 1604 1425 C 1600 1433 1591 1440 1584 1440 C 1572 1440 1570 1412 1572 1278 C 1575 1135 1577 1115 1592 1112 C 1606 1109 1609 1124 1612 1238 C 1615 1382 1626 1410 1681 1410 C 1717 1410 1740 1386 1740 1347 C 1743 1140 1745 1115 1763 1112 C 1778 1109 1780 1120 1780 1240 C 1780 1384 1769 1423 1724 1440 C 1689 1454 1679 1453 1642 1430 z" stroke-linecap="round" />
</g>
		<g transform="matrix(0.13 0 0 -0.13 -75.56 128.16)"  >
<path style="stroke: none; stroke-width: 1; stroke-dasharray: none; stroke-linecap: butt; stroke-dashoffset: 0; stroke-linejoin: miter; stroke-miterlimit: 4; fill: rgb(0,0,0); fill-rule: nonzero; opacity: 1;" vector-effect="non-scaling-stroke"  transform=" translate(-2323.33, -1278.35)" d="M 2270 1428 C 2232 1402 2215 1350 2244 1350 C 2253 1350 2260 1355 2260 1360 C 2260 1366 2269 1379 2280 1390 C 2323 1433 2390 1400 2390 1335 L 2390 1300 L 2332 1300 C 2263 1300 2235 1283 2221 1233 C 2209 1191 2227 1138 2258 1121 C 2289 1105 2356 1108 2374 1126 C 2389 1140 2391 1140 2396 1126 C 2399 1117 2409 1110 2417 1110 C 2430 1110 2431 1131 2428 1250 C 2425 1384 2424 1391 2399 1415 C 2362 1452 2313 1457 2270 1428 z M 2390 1227 C 2390 1166 2372 1145 2320 1146 C 2269 1148 2256 1160 2256 1206 C 2256 1253 2279 1270 2342 1270 L 2390 1270 L 2390 1227 z" stroke-linecap="round" />
</g>
		<g transform="matrix(0.13 0 0 -0.13 89.33 128.07)"  >
<path style="stroke: none; stroke-width: 1; stroke-dasharray: none; stroke-linecap: butt; stroke-dashoffset: 0; stroke-linejoin: miter; stroke-miterlimit: 4; fill: rgb(0,0,0); fill-rule: nonzero; opacity: 1;" vector-effect="non-scaling-stroke"  transform=" translate(-3560, -1279)" d="M 3512 1435 C 3468 1416 3450 1370 3450 1275 C 3450 1192 3467 1138 3498 1121 C 3536 1101 3604 1108 3634 1135 C 3648 1148 3660 1163 3660 1169 C 3660 1174 3663 1185 3666 1194 C 3670 1205 3666 1210 3652 1210 C 3639 1210 3630 1201 3626 1186 C 3619 1158 3573 1136 3538 1145 C 3509 1152 3490 1187 3490 1230 L 3490 1260 L 3580 1260 L 3670 1260 L 3670 1305 C 3670 1372 3647 1418 3606 1435 C 3563 1453 3554 1453 3512 1435 z M 3610 1390 C 3623 1377 3630 1357 3630 1330 L 3630 1290 L 3560 1290 L 3490 1290 L 3490 1330 C 3490 1379 3517 1410 3560 1410 C 3577 1410 3599 1401 3610 1390 z" stroke-linecap="round" />
</g>
		<g transform="matrix(0.13 0 0 -0.13 136.72 128.14)"  >
<path style="stroke: none; stroke-width: 1; stroke-dasharray: none; stroke-linecap: butt; stroke-dashoffset: 0; stroke-linejoin: miter; stroke-miterlimit: 4; fill: rgb(0,0,0); fill-rule: nonzero; opacity: 1;" vector-effect="non-scaling-stroke"  transform=" translate(-3915.41, -1278.49)" d="M 3880 1443 C 3844 1429 3820 1396 3820 1361 C 3820 1312 3828 1303 3900 1267 C 3972 1231 3986 1214 3976 1177 C 3963 1125 3867 1132 3854 1185 C 3850 1201 3841 1210 3829 1210 C 3806 1210 3805 1198 3825 1160 C 3845 1122 3868 1110 3925 1110 C 3983 1110 4020 1142 4020 1192 C 4020 1240 4000 1263 3931 1294 C 3859 1326 3841 1350 3865 1386 C 3875 1402 3890 1410 3910 1410 C 3939 1410 3980 1381 3980 1360 C 3980 1355 3987 1350 3995 1350 C 4018 1350 4013 1394 3986 1419 C 3962 1441 3907 1454 3880 1443 z" stroke-linecap="round" />
</g>
		<g transform="matrix(0.13 0 0 -0.13 213.2 135.85)"  >
<path style="stroke: none; stroke-width: 1; stroke-dasharray: none; stroke-linecap: butt; stroke-dashoffset: 0; stroke-linejoin: miter; stroke-miterlimit: 4; fill: rgb(0,0,0); fill-rule: nonzero; opacity: 1;" vector-effect="non-scaling-stroke"  transform=" translate(-4488.97, -1220.65)" d="M 4434 1431 C 4417 1421 4398 1397 4391 1379 C 4375 1331 4377 1215 4396 1179 C 4422 1127 4504 1108 4548 1143 C 4567 1158 4564 1080 4544 1052 C 4531 1033 4520 1030 4487 1032 C 4453 1034 4443 1040 4432 1063 C 4417 1093 4390 1100 4390 1072 C 4390 994 4524 966 4574 1034 C 4593 1059 4595 1077 4597 1245 C 4600 1430 4594 1466 4565 1427 C 4555 1413 4552 1413 4539 1425 C 4514 1450 4468 1453 4434 1431 z M 4526 1402 C 4550 1387 4560 1348 4560 1278 C 4560 1188 4545 1160 4494 1160 C 4473 1160 4452 1168 4439 1181 C 4420 1200 4418 1211 4422 1292 C 4424 1367 4428 1384 4444 1396 C 4465 1411 4508 1414 4526 1402 z" stroke-linecap="round" />
</g>
		<g transform="matrix(0.13 0 0 -0.13 264.67 127.9)"  >
<path style="stroke: none; stroke-width: 1; stroke-dasharray: none; stroke-linecap: butt; stroke-dashoffset: 0; stroke-linejoin: miter; stroke-miterlimit: 4; fill: rgb(0,0,0); fill-rule: nonzero; opacity: 1;" vector-effect="non-scaling-stroke"  transform=" translate(-4875, -1280.3)" d="M 4854 1440 C 4842 1435 4829 1427 4825 1421 C 4816 1405 4800 1408 4800 1425 C 4800 1433 4793 1440 4785 1440 C 4772 1440 4770 1415 4770 1274 C 4770 1122 4771 1109 4788 1112 C 4803 1115 4806 1132 4810 1242 C 4816 1381 4827 1410 4880 1410 C 4930 1410 4939 1387 4942 1245 C 4945 1131 4947 1115 4963 1112 C 4978 1109 4980 1120 4980 1240 C 4980 1384 4969 1423 4924 1440 C 4894 1452 4882 1452 4854 1440 z" stroke-linecap="round" />
</g>
		<g transform="matrix(0.13 0 0 -0.13 174 128.6)"  >
<path style="stroke: none; stroke-width: 1; stroke-dasharray: none; stroke-linecap: butt; stroke-dashoffset: 0; stroke-linejoin: miter; stroke-miterlimit: 4; fill: rgb(0,0,0); fill-rule: nonzero; opacity: 1;" vector-effect="non-scaling-stroke"  transform=" translate(-4195, -1275)" d="M 4180 1275 C 4180 1135 4182 1110 4195 1110 C 4208 1110 4210 1135 4210 1275 C 4210 1415 4208 1440 4195 1440 C 4182 1440 4180 1415 4180 1275 z" stroke-linecap="round" />
</g>
		<g transform="matrix(0.13 0 0 -0.13 -50.85 202.25)"  >
<path style="stroke: none; stroke-width: 1; stroke-dasharray: none; stroke-linecap: butt; stroke-dashoffset: 0; stroke-linejoin: miter; stroke-miterlimit: 4; fill: rgb(0,0,0); fill-rule: nonzero; opacity: 1;" vector-effect="non-scaling-stroke"  transform=" translate(-2508.64, -722.67)" d="M 2490 726 C 2490 634 2491 630 2512 630 C 2529 630 2531 633 2522 642 C 2515 649 2510 685 2510 731 C 2510 774 2506 812 2500 815 C 2494 819 2490 787 2490 726 z" stroke-linecap="round" />
</g>
		<g transform="matrix(0.13 0 0 -0.13 59.64 202.13)"  >
<path style="stroke: none; stroke-width: 1; stroke-dasharray: none; stroke-linecap: butt; stroke-dashoffset: 0; stroke-linejoin: miter; stroke-miterlimit: 4; fill: rgb(0,0,0); fill-rule: nonzero; opacity: 1;" vector-effect="non-scaling-stroke"  transform=" translate(-3337.31, -723.52)" d="M 3319 813 C 3317 800 3317 770 3318 698 C 3320 635 3322 630 3342 630 C 3359 630 3361 633 3352 642 C 3345 649 3340 685 3340 731 C 3340 774 3336 812 3330 815 C 3325 818 3319 818 3319 813 z" stroke-linecap="round" />
</g>
		<g transform="matrix(0.13 0 0 -0.13 99.33 202.22)"  >
<path style="stroke: none; stroke-width: 1; stroke-dasharray: none; stroke-linecap: butt; stroke-dashoffset: 0; stroke-linejoin: miter; stroke-miterlimit: 4; fill: rgb(0,0,0); fill-rule: nonzero; opacity: 1;" vector-effect="non-scaling-stroke"  transform=" translate(-3635.01, -722.84)" d="M 3597 814 C 3586 803 3589 630 3599 630 C 3604 630 3612 655 3615 685 C 3626 769 3660 757 3660 669 C 3660 648 3665 630 3670 630 C 3676 630 3680 654 3680 684 C 3680 741 3666 764 3633 758 C 3621 756 3616 760 3618 773 C 3622 794 3607 823 3597 814 z" stroke-linecap="round" />
</g>
		<g transform="matrix(0.13 0 0 -0.13 80.87 202.91)"  >
<path style="stroke: none; stroke-width: 1; stroke-dasharray: none; stroke-linecap: butt; stroke-dashoffset: 0; stroke-linejoin: miter; stroke-miterlimit: 4; fill: rgb(0,0,0); fill-rule: nonzero; opacity: 1;" vector-effect="non-scaling-stroke"  transform=" translate(-3496.49, -717.71)" d="M 3484 800 C 3446 785 3447 751 3487 714 C 3530 674 3527 645 3480 652 C 3461 655 3451 653 3453 646 C 3458 630 3509 626 3526 641 C 3550 661 3543 697 3510 722 C 3466 754 3470 787 3518 781 C 3524 780 3530 783 3530 788 C 3530 803 3507 808 3484 800 z" stroke-linecap="round" />
</g>
		<g transform="matrix(0.13 0 0 -0.13 -152.67 203.27)"  >
<path style="stroke: none; stroke-width: 1; stroke-dasharray: none; stroke-linecap: butt; stroke-dashoffset: 0; stroke-linejoin: miter; stroke-miterlimit: 4; fill: rgb(0,0,0); fill-rule: nonzero; opacity: 1;" vector-effect="non-scaling-stroke"  transform=" translate(-1745, -715)" d="M 1690 715 C 1690 665 1694 630 1700 630 C 1706 630 1710 656 1710 688 L 1711 745 L 1743 688 C 1789 606 1800 612 1800 716 C 1800 780 1797 801 1788 797 C 1779 795 1776 777 1777 747 C 1778 722 1776 699 1771 696 C 1767 693 1752 716 1737 746 C 1722 775 1706 800 1700 800 C 1694 800 1690 766 1690 715 z" stroke-linecap="round" />
</g>
		<g transform="matrix(0.13 0 0 -0.13 -27.33 203.27)"  >
<path style="stroke: none; stroke-width: 1; stroke-dasharray: none; stroke-linecap: butt; stroke-dashoffset: 0; stroke-linejoin: miter; stroke-miterlimit: 4; fill: rgb(0,0,0); fill-rule: nonzero; opacity: 1;" vector-effect="non-scaling-stroke"  transform=" translate(-2685, -715)" d="M 2630 715 L 2630 630 L 2668 630 C 2721 630 2740 653 2740 717 C 2740 777 2720 800 2667 800 L 2630 800 L 2630 715 z M 2714 764 C 2724 737 2721 675 2708 662 C 2701 655 2688 650 2678 650 C 2663 650 2660 659 2660 715 C 2660 777 2661 780 2684 780 C 2697 780 2711 773 2714 764 z" stroke-linecap="round" />
</g>
		<g transform="matrix(0.13 0 0 -0.13 -116.16 203.97)"  >
<path style="stroke: none; stroke-width: 1; stroke-dasharray: none; stroke-linecap: butt; stroke-dashoffset: 0; stroke-linejoin: miter; stroke-miterlimit: 4; fill: rgb(0,0,0); fill-rule: nonzero; opacity: 1;" vector-effect="non-scaling-stroke"  transform=" translate(-2018.8, -709.75)" d="M 2003 775 C 1998 764 1996 728 1999 695 C 2004 649 2009 634 2023 632 C 2032 630 2040 633 2040 639 C 2040 645 2036 650 2030 650 C 2015 650 2018 737 2033 743 C 2041 747 2042 751 2034 757 C 2028 761 2021 772 2018 780 C 2014 792 2011 791 2003 775 z" stroke-linecap="round" />
</g>
		<g transform="matrix(0.13 0 0 -0.13 27.81 203.87)"  >
<path style="stroke: none; stroke-width: 1; stroke-dasharray: none; stroke-linecap: butt; stroke-dashoffset: 0; stroke-linejoin: miter; stroke-miterlimit: 4; fill: rgb(0,0,0); fill-rule: nonzero; opacity: 1;" vector-effect="non-scaling-stroke"  transform=" translate(-3098.55, -710.48)" d="M 3078 773 C 3076 763 3076 728 3079 695 C 3084 649 3089 634 3103 632 C 3112 630 3120 633 3120 639 C 3120 645 3116 650 3110 650 C 3095 650 3098 737 3113 744 C 3123 749 3123 751 3113 756 C 3106 759 3100 768 3100 776 C 3100 796 3083 793 3078 773 z" stroke-linecap="round" />
</g>
		<g transform="matrix(0.13 0 0 -0.13 -132.59 205.84)"  >
<path style="stroke: none; stroke-width: 1; stroke-dasharray: none; stroke-linecap: butt; stroke-dashoffset: 0; stroke-linejoin: miter; stroke-miterlimit: 4; fill: rgb(0,0,0); fill-rule: nonzero; opacity: 1;" vector-effect="non-scaling-stroke"  transform=" translate(-1895.55, -695.75)" d="M 1867 753 C 1854 740 1860 734 1887 735 C 1924 735 1927 714 1891 707 C 1870 702 1859 693 1854 676 C 1845 640 1856 630 1901 632 L 1940 633 L 1940 685 C 1940 713 1935 741 1928 748 C 1915 761 1878 764 1867 753 z M 1920 675 C 1920 666 1913 657 1904 653 C 1886 646 1865 664 1874 679 C 1885 696 1920 692 1920 675 z" stroke-linecap="round" />
</g>
		<g transform="matrix(0.13 0 0 -0.13 -100.63 206.18)"  >
<path style="stroke: none; stroke-width: 1; stroke-dasharray: none; stroke-linecap: butt; stroke-dashoffset: 0; stroke-linejoin: miter; stroke-miterlimit: 4; fill: rgb(0,0,0); fill-rule: nonzero; opacity: 1;" vector-effect="non-scaling-stroke"  transform=" translate(-2135.25, -693.19)" d="M 2098 754 C 2088 744 2088 658 2098 643 C 2102 636 2123 631 2143 632 L 2180 633 L 2180 691 C 2180 765 2162 778 2158 708 C 2155 663 2152 655 2135 655 C 2118 655 2114 663 2110 708 C 2107 738 2102 758 2098 754 z" stroke-linecap="round" />
</g>
		<g transform="matrix(0.13 0 0 -0.13 -82.7 206.3)"  >
<path style="stroke: none; stroke-width: 1; stroke-dasharray: none; stroke-linecap: butt; stroke-dashoffset: 0; stroke-linejoin: miter; stroke-miterlimit: 4; fill: rgb(0,0,0); fill-rule: nonzero; opacity: 1;" vector-effect="non-scaling-stroke"  transform=" translate(-2269.78, -692.25)" d="M 2240 693 C 2240 658 2244 630 2250 630 C 2256 630 2260 653 2260 680 C 2260 723 2263 732 2283 740 C 2308 750 2306 752 2268 754 C 2240 756 2240 755 2240 693 z" stroke-linecap="round" />
</g>
		<g transform="matrix(0.13 0 0 -0.13 -67.24 205.8)"  >
<path style="stroke: none; stroke-width: 1; stroke-dasharray: none; stroke-linecap: butt; stroke-dashoffset: 0; stroke-linejoin: miter; stroke-miterlimit: 4; fill: rgb(0,0,0); fill-rule: nonzero; opacity: 1;" vector-effect="non-scaling-stroke"  transform=" translate(-2385.72, -696.01)" d="M 2350 750 C 2350 745 2361 740 2375 740 C 2391 740 2400 734 2400 725 C 2400 717 2392 710 2381 710 C 2356 710 2338 686 2342 658 C 2345 638 2351 635 2388 634 L 2430 632 L 2430 680 C 2430 711 2424 734 2414 744 C 2397 762 2350 766 2350 750 z M 2403 684 C 2414 673 2398 650 2379 650 C 2361 650 2353 670 2367 683 C 2375 692 2395 692 2403 684 z" stroke-linecap="round" />
</g>
		<g transform="matrix(0.13 0 0 -0.13 -7.37 205.96)"  >
<path style="stroke: none; stroke-width: 1; stroke-dasharray: none; stroke-linecap: butt; stroke-dashoffset: 0; stroke-linejoin: miter; stroke-miterlimit: 4; fill: rgb(0,0,0); fill-rule: nonzero; opacity: 1;" vector-effect="non-scaling-stroke"  transform=" translate(-2834.7, -694.81)" d="M 2806 738 C 2773 692 2793 630 2840 630 C 2856 630 2872 635 2875 640 C 2879 646 2868 650 2850 650 C 2825 650 2819 654 2822 668 C 2824 677 2831 686 2838 686 C 2844 687 2857 688 2865 689 C 2883 690 2885 731 2868 748 C 2849 767 2823 762 2806 738 z M 2858 717 C 2860 705 2855 700 2841 700 C 2826 700 2820 706 2820 721 C 2820 746 2853 743 2858 717 z" stroke-linecap="round" />
</g>
		<g transform="matrix(0.13 0 0 -0.13 11.32 206.18)"  >
<path style="stroke: none; stroke-width: 1; stroke-dasharray: none; stroke-linecap: butt; stroke-dashoffset: 0; stroke-linejoin: miter; stroke-miterlimit: 4; fill: rgb(0,0,0); fill-rule: nonzero; opacity: 1;" vector-effect="non-scaling-stroke"  transform=" translate(-2974.92, -693.15)" d="M 2933 744 C 2924 721 2935 636 2948 632 C 2957 629 2960 644 2960 685 C 2960 733 2963 741 2978 738 C 2991 736 2996 723 2998 682 C 3000 654 3005 630 3011 630 C 3025 630 3022 736 3008 748 C 2991 761 2939 758 2933 744 z" stroke-linecap="round" />
</g>
		<g transform="matrix(0.13 0 0 -0.13 43.36 205.83)"  >
<path style="stroke: none; stroke-width: 1; stroke-dasharray: none; stroke-linecap: butt; stroke-dashoffset: 0; stroke-linejoin: miter; stroke-miterlimit: 4; fill: rgb(0,0,0); fill-rule: nonzero; opacity: 1;" vector-effect="non-scaling-stroke"  transform=" translate(-3215.22, -695.78)" d="M 3175 750 C 3171 744 3182 740 3199 740 C 3220 740 3230 735 3230 725 C 3230 717 3222 710 3211 710 C 3186 710 3168 686 3172 658 C 3175 638 3181 635 3217 634 L 3259 632 L 3254 684 C 3251 712 3247 741 3244 748 C 3240 762 3184 764 3175 750 z M 3230 670 C 3230 657 3223 650 3210 650 C 3191 650 3183 670 3197 683 C 3210 697 3230 689 3230 670 z" stroke-linecap="round" />
</g>
		<g transform="matrix(0.13 0 0 -0.13 118.08 205.81)"  >
<path style="stroke: none; stroke-width: 1; stroke-dasharray: none; stroke-linecap: butt; stroke-dashoffset: 0; stroke-linejoin: miter; stroke-miterlimit: 4; fill: rgb(0,0,0); fill-rule: nonzero; opacity: 1;" vector-effect="non-scaling-stroke"  transform=" translate(-3775.62, -695.97)" d="M 3745 750 C 3742 744 3750 740 3764 740 C 3804 740 3804 722 3765 706 C 3734 693 3729 686 3732 663 C 3735 638 3739 635 3778 634 L 3820 632 L 3820 677 C 3820 701 3815 730 3810 741 C 3799 761 3756 767 3745 750 z M 3798 673 C 3794 651 3750 642 3750 663 C 3750 682 3760 690 3782 690 C 3795 690 3800 684 3798 673 z" stroke-linecap="round" />
</g>
		<g transform="matrix(0.13 0 0 -0.13 137.84 209.46)"  >
<path style="stroke: none; stroke-width: 1; stroke-dasharray: none; stroke-linecap: butt; stroke-dashoffset: 0; stroke-linejoin: miter; stroke-miterlimit: 4; fill: rgb(0,0,0); fill-rule: nonzero; opacity: 1;" vector-effect="non-scaling-stroke"  transform=" translate(-3923.77, -668.59)" d="M 3880 668 C 3880 616 3884 580 3890 580 C 3896 580 3900 591 3900 604 C 3900 623 3906 629 3928 632 C 3950 634 3957 642 3964 672 C 3977 723 3953 760 3910 757 L 3880 755 L 3880 668 z M 3942 718 C 3948 677 3939 650 3919 650 C 3904 650 3900 657 3900 688 C 3900 709 3903 730 3907 733 C 3921 747 3939 739 3942 718 z" stroke-linecap="round" />
</g>
		<g transform="matrix(0.13 0 0 -0.13 156 206.02)"  >
<path style="stroke: none; stroke-width: 1; stroke-dasharray: none; stroke-linecap: butt; stroke-dashoffset: 0; stroke-linejoin: miter; stroke-miterlimit: 4; fill: rgb(0,0,0); fill-rule: nonzero; opacity: 1;" vector-effect="non-scaling-stroke"  transform=" translate(-4059.98, -694.34)" d="M 4025 736 C 4005 705 4012 645 4036 636 C 4061 627 4100 629 4100 640 C 4100 646 4087 650 4070 650 C 4050 650 4040 655 4040 665 C 4040 673 4043 680 4048 681 C 4052 681 4065 683 4077 684 C 4110 688 4113 695 4098 727 C 4080 765 4046 769 4025 736 z M 4080 720 C 4080 707 4073 700 4060 700 C 4041 700 4033 720 4047 733 C 4060 747 4080 739 4080 720 z" stroke-linecap="round" />
</g>
</g>
</g>
</svg>